<mxfile host="app.diagrams.net" modified="2023-11-04T14:23:50.157Z" agent="Mozilla/5.0 (Windows NT 10.0; Win64; x64) AppleWebKit/537.36 (KHTML, like Gecko) Chrome/120.0.0.0 Safari/537.36" version="22.0.8" etag="_Et__51Y8I8kzQ9_pO0J" type="github">
  <diagram name="第 1 页" id="eWU9vSYaFmg_qYAYD5FD">
    <mxGraphModel>
      <root>
        <mxCell id="0" />
        <mxCell id="1" parent="0" />
      </root>
    </mxGraphModel>
  </diagram>
</mxfile>
